<svg width="1920" height="1080" viewBox="0 0 1920 1080" xmlns="http://www.w3.org/2000/svg"><rect width="1920" height="1080" fill="#60a5fa"/><path d="M 0,1080 C 0,1080 0,216 0,216 C 70.28974358974361,234.2974358974359 140.57948717948722,252.59487179487178 282,238 C 423.4205128205128,223.40512820512822 635.9717948717949,175.91794871794872 711,157 C 786.0282051282051,138.08205128205128 723.5333333333332,147.73333333333332 840,145 C 956.4666666666668,142.26666666666668 1251.894871794872,127.14871794871794 1385,137 C 1518.105128205128,146.85128205128206 1488.8871794871793,181.67179487179487 1551,199 C 1613.1128205128207,216.32820512820513 1766.5564102564103,216.16410256410256 1920,216 C 1920,216 1920,1080 1920,1080 Z" fill="#1e40af" opacity="0.12"/><path d="M 0,1080 C 0,1080 0,432 0,432 C 97.37179487179489,454.94358974358977 194.74358974358978,477.8871794871795 294,459 C 393.2564102564102,440.1128205128205 494.3974358974358,379.3948717948718 569,372 C 643.6025641025642,364.6051282051282 691.6666666666667,410.53333333333336 843,435 C 994.3333333333333,459.46666666666664 1248.9358974358975,462.4717948717949 1385,461 C 1521.0641025641025,459.5282051282051 1538.5897435897436,453.57948717948716 1608,448 C 1677.4102564102564,442.42051282051284 1798.7051282051282,437.2102564102564 1920,432 C 1920,432 1920,1080 1920,1080 Z" fill="#1e40af" opacity="0.24"/><path d="M 0,1080 C 0,1080 0,648 0,648 C 102.16923076923078,606.2743589743591 204.33846153846156,564.548717948718 310,586 C 415.66153846153844,607.451282051282 524.8153846153847,692.0794871794872 655,695 C 785.1846153846153,697.9205128205128 936.3999999999999,619.1333333333332 1029,619 C 1121.6000000000001,618.8666666666668 1155.5846153846155,697.3871794871795 1258,710 C 1360.4153846153845,722.6128205128205 1531.2615384615383,669.3179487179488 1653,648 C 1774.7384615384617,626.6820512820512 1847.3692307692309,637.3410256410257 1920,648 C 1920,648 1920,1080 1920,1080 Z" fill="#1e40af" opacity="0.36"/><path d="M 0,1080 C 0,1080 0,864 0,864 C 47.64358974358976,880.3717948717949 95.28717948717951,896.7435897435897 201,887 C 306.7128205128205,877.2564102564103 470.49487179487164,841.3974358974359 629,845 C 787.5051282051284,848.6025641025641 940.7333333333336,891.6666666666666 1074,888 C 1207.2666666666664,884.3333333333334 1320.5717948717947,833.9358974358975 1399,823 C 1477.4282051282053,812.0641025641025 1520.979487179487,840.5897435897435 1602,854 C 1683.020512820513,867.4102564102565 1801.5102564102565,865.7051282051282 1920,864 C 1920,864 1920,1080 1920,1080 Z" fill="#1e40af" opacity="0.48"/></svg>